<svg id="Capa_1" enable-background="new 0 0 510 510" height="512" viewBox="0 0 510 510" width="512" xmlns="http://www.w3.org/2000/svg"><g><g id="XMLID_3742_"><path id="XMLID_3864_" d="m420 361v14l14.5 15 14.5-15c33.7 0 61-27.3 61-61 0-4.9 0-9.1 0-14-10.1 0-18.9 0-29 0-33.7 0-61 27.4-61 61z" fill="#b9dd39"/><path id="XMLID_3865_" d="m374 405-14.5-6.2-14.5 6.2v14c0 33.7 27.3 61 61 61h29v-7c-.5-2.9 3.6-28.6-17.9-50.1-11-11-26.2-17.9-43.1-17.9z" fill="#b9dd39"/><path id="XMLID_3890_" d="m42 321c-8.4 6.3-15.6 11.7-24 18l27 36 19.7 8.7 17.8-8.7c-11-14.6-34.1-45.4-40.5-54z" fill="#624a4f"/><path id="XMLID_3753_" d="m50.8 435c-16.1 0-34.6 0-50.7 0v30h69.3c8.1-16.3 25.2-50.4 30-60l-13.4-8.6-20.2 8.6c-5.3 10.5-9.8 19.6-15 30z" fill="#624a4f"/><g id="XMLID_3826_"><path id="XMLID_3913_" d="m135 375h-135v30h135l12-15z" fill="#895050"/></g><path id="XMLID_3833_" d="m375 150c41.4 0 75-33.6 75-75l-46.6-9.1-28.4 9.1-11.5 37.5z" fill="#ca2e43"/><path id="XMLID_3861_" d="m225 405h82.5l6.8-8.2-6.8-9.7z" fill="#895050"/><path id="XMLID_3881_" d="m510 375c-38.3 0-146.6 0-184.9 0l-10.7 2.7-6.8 9.4v17.9h202.5c-.1-10.4-.1-19.5-.1-30z" fill="#624a4f"/><path id="XMLID_3746_" d="m135 345v165h15c20.7 0 39.4-8.4 53-22s22-32.3 22-53c0-22.8 0-82.7 0-107l-55 2z" fill="#00b44b"/><path id="XMLID_3869_" d="m420 0c-15 0-30 0-45 0l-11.5 37.5 11.5 37.5h60 60c0-41.3-33.6-75-75-75z" fill="#ff3f5c"/><path id="XMLID_3777_" d="m285 164.7-60 163.4v77c18.3 0 48 2 82.5-17.9l15.5-111.8-15.5-111.7-11.8-6.9z" fill="#90cc1c"/><path id="XMLID_3828_" d="m307.5 163.7v223.5c20.5-11.8 37.5-28.8 49.4-49.3 11.5-19.8 18.1-42.8 18.1-67.3 0-10.4 0-177.6 0-188l-33.8 42z" fill="#00b44b"/><path id="XMLID_3751_" d="m292.5 0c-2.9 0-16.1 0-22.5 0-74.4 0-135 60.6-135 135v120l12.3 13.3-12.3 16.7v60h14c5.9-1 39 4.9 76-17 36.5-21.7 60-61.1 60-105 0-107.8-.7-16.8 7.5-223z" fill="#b9dd39"/><g id="XMLID_3829_"><path id="XMLID_3914_" d="m135 255v30c17.7 0 43.8 2.3 68-22 13.6-13.6 22-32.3 22-53-10.5 0-19.5 0-30 0 0 12.4-5 23.7-13.2 31.8-15.2 15.3-31.5 13.2-46.8 13.2z" fill="#90cc1c"/></g><path id="XMLID_3862_" d="m307.5.5v-.5c-18.5 0-49.5-2.4-76.4 27.5-13.1 14.6-21.1 33.9-21.1 55 0 21.4 8.2 40.9 21.6 55.6 19.2 21 47.7 30.7 75.9 25.5l22.5-81.5z" fill="#ffd845"/><path id="XMLID_3873_" d="m307.5 0v163.6c38.6-7.1 67.5-41 67.5-81.1 0-9.9 0-72.1 0-82.5-18.3 0-56.8 0-67.5 0z" fill="#ffa951"/></g><path d="m277.5 66.9h30v30h-30z" fill="#624a4f"/></g></svg>